<svg xmlns="http://www.w3.org/2000/svg" xmlns:xlink="http://www.w3.org/1999/xlink" width="500" zoomAndPan="magnify" viewBox="0 0 375 374.999991" height="500" preserveAspectRatio="xMidYMid meet" version="1.0"><defs><g/></defs><g fill="#ff5757" fill-opacity="1"><g transform="translate(107.138244, 195.541622)"><g><path d="M 87.519531 -30.296875 C 86.8125 -31.179688 86.28125 -31.535156 85.570312 -32.066406 C 82.914062 -33.660156 79.722656 -34.191406 76.890625 -34.546875 C 75.648438 -34.722656 74.585938 -34.902344 72.816406 -35.078125 C 73.347656 -36.671875 73.523438 -37.734375 73.878906 -38.800781 C 74.761719 -41.101562 75.648438 -43.40625 76.359375 -45.886719 C 78.839844 -53.503906 81.496094 -61.121094 83.800781 -68.738281 L 85.925781 -74.761719 C 86.101562 -75.296875 86.101562 -76.179688 86.101562 -76.710938 C 86.101562 -78.308594 83.976562 -80.789062 82.203125 -81.320312 C 81.320312 -81.496094 80.433594 -81.320312 79.722656 -80.609375 C 79.015625 -79.722656 78.484375 -79.191406 77.777344 -78.484375 C 76.535156 -78.484375 75.117188 -78.308594 74.054688 -78.308594 L 67.324219 -78.308594 C 63.601562 -78.308594 59.351562 -77.597656 54.210938 -77.597656 C 52.617188 -77.777344 43.40625 -76.710938 41.457031 -76.890625 C 38.976562 -76.359375 35.964844 -74.585938 33.484375 -74.230469 C 32.953125 -74.230469 32.597656 -73.878906 32.066406 -74.054688 C 30.472656 -74.230469 29.054688 -73.523438 27.636719 -72.992188 C 25.6875 -72.105469 23.5625 -71.21875 21.261719 -71.398438 C 20.90625 -71.398438 20.195312 -71.042969 19.664062 -70.6875 C 18.78125 -69.804688 18.070312 -68.917969 17.183594 -68.207031 C 15.414062 -66.613281 14.527344 -64.488281 14.351562 -61.832031 C 13.996094 -57.402344 15.769531 -53.328125 18.601562 -49.605469 C 18.957031 -49.074219 19.84375 -48.71875 20.550781 -48.367188 C 21.613281 -48.011719 22.324219 -47.65625 23.207031 -47.304688 C 24.980469 -46.773438 26.75 -46.0625 28.523438 -45.886719 C 30.648438 -45.707031 32.597656 -46.238281 34.191406 -46.773438 C 35.789062 -47.125 37.027344 -47.304688 38.445312 -47.125 C 39.152344 -46.949219 39.683594 -46.949219 40.039062 -47.125 C 41.632812 -48.011719 43.40625 -48.1875 45.355469 -48.71875 C 45.707031 -48.71875 45.707031 -48.898438 46.0625 -49.429688 C 42.875 -49.429688 39.863281 -49.605469 36.851562 -49.605469 C 31.003906 -49.785156 25.335938 -51.378906 20.019531 -54.390625 C 18.425781 -55.277344 18.070312 -55.984375 18.425781 -57.753906 C 19.132812 -60.945312 21.4375 -63.246094 24.09375 -64.84375 C 27.816406 -67.144531 32.066406 -68.917969 36.671875 -69.625 C 39.507812 -69.804688 42.34375 -70.335938 45.175781 -71.042969 C 48.71875 -72.105469 52.972656 -72.105469 56.871094 -72.105469 C 62.363281 -72.105469 68.03125 -71.75 73.523438 -71.398438 C 74.054688 -71.398438 74.941406 -71.042969 75.648438 -70.867188 C 75.648438 -68.917969 75.296875 -67.324219 74.941406 -65.550781 C 74.054688 -62.363281 72.636719 -59.527344 72.636719 -56.160156 C 72.636719 -55.628906 72.105469 -55.277344 71.929688 -54.742188 C 71.574219 -54.035156 71.21875 -53.328125 71.042969 -52.617188 C 70.511719 -51.378906 70.15625 -50.316406 69.804688 -48.898438 C 69.273438 -47.65625 68.5625 -46.238281 68.738281 -45 C 68.738281 -43.226562 66.96875 -43.050781 67.144531 -41.632812 L 66.082031 -37.914062 C 65.90625 -35.433594 64.664062 -34.191406 62.007812 -33.484375 C 58.109375 -32.421875 53.859375 -31.179688 49.960938 -29.585938 C 44.113281 -27.460938 39.152344 -24.449219 34.371094 -20.550781 C 30.828125 -17.714844 27.460938 -14.351562 24.625 -10.453125 L 20.90625 -5.847656 C 20.375 -4.785156 18.957031 -3.898438 19.3125 -2.304688 C 19.3125 -1.773438 18.601562 -1.0625 18.246094 -0.53125 C 15.945312 3.1875 14.527344 7.085938 14.171875 11.515625 C 14.171875 14.882812 15.058594 19.132812 17.539062 21.792969 C 20.019531 24.09375 23.917969 25.511719 25.335938 25.6875 C 30.117188 26.042969 32.242188 25.15625 36.140625 23.738281 C 38.800781 22.144531 41.457031 20.550781 43.757812 18.246094 C 46.0625 16.121094 48.011719 13.820312 50.136719 11.515625 C 50.847656 9.566406 52.265625 8.148438 53.679688 6.554688 C 54.210938 6.378906 54.566406 5.667969 54.742188 5.136719 C 56.691406 2.125 57.933594 -1.0625 59.527344 -3.898438 C 61.121094 -7.441406 62.714844 -10.808594 64.3125 -14.527344 C 66.082031 -18.957031 68.207031 -23.207031 69.804688 -27.992188 C 70.335938 -29.410156 71.398438 -30.296875 73.347656 -30.296875 C 74.230469 -30.472656 75.117188 -30.648438 76.003906 -30.472656 C 79.371094 -30.472656 82.558594 -30.296875 85.925781 -29.230469 C 86.457031 -29.054688 87.164062 -29.054688 87.875 -29.054688 Z M 61.652344 -21.261719 C 61.300781 -20.726562 60.945312 -18.957031 60.589844 -18.246094 C 60.234375 -17.183594 59.882812 -16.476562 59.703125 -15.769531 C 59.527344 -15.058594 59.527344 -14.527344 59.351562 -13.640625 C 58.640625 -12.933594 57.578125 -12.578125 57.402344 -11.160156 C 57.046875 -10.097656 56.339844 -9.035156 55.628906 -7.972656 C 55.277344 -7.265625 54.566406 -4.429688 53.859375 -4.074219 C 52.617188 -2.65625 51.730469 -1.238281 51.023438 0.175781 C 49.25 3.367188 47.304688 6.023438 45.175781 9.035156 C 43.757812 11.339844 38.269531 18.246094 31.710938 20.195312 C 29.765625 20.726562 24.625 21.613281 21.96875 18.601562 C 19.132812 15.414062 20.019531 11.515625 21.4375 7.796875 C 22.144531 5.316406 24.09375 2.65625 24.804688 0 C 25.6875 -1.773438 26.574219 -3.367188 27.816406 -4.785156 C 28.699219 -5.847656 29.765625 -6.910156 30.296875 -8.148438 C 31.535156 -9.921875 33.128906 -11.515625 34.722656 -12.933594 C 40.214844 -17.714844 42.695312 -19.3125 45.53125 -21.082031 C 47.835938 -22.855469 50.667969 -23.917969 52.972656 -25.511719 C 56.160156 -26.75 58.996094 -27.992188 60.769531 -28.347656 C 61.652344 -28.523438 62.894531 -28.878906 63.957031 -28.878906 C 63.425781 -26.21875 62.539062 -23.386719 61.652344 -21.261719 Z M 61.652344 -21.261719 "/></g></g></g><g fill="#ff5757" fill-opacity="1"><g transform="translate(175.831224, 195.958353)"><g><path d="M 93.71875 35.609375 C 97.617188 34.371094 100.273438 32.066406 102.753906 29.054688 C 103.109375 28.699219 103.640625 27.816406 103.289062 26.929688 C 102.046875 28.167969 101.339844 28.878906 100.273438 29.585938 C 97.261719 31.890625 94.429688 32.242188 90.175781 32.066406 C 82.558594 30.828125 76.359375 27.636719 71.398438 21.613281 C 67.675781 16.476562 64.3125 10.628906 61.652344 4.785156 C 61.476562 4.253906 61.121094 3.367188 60.945312 2.65625 C 61.121094 2.65625 61.121094 2.65625 61.121094 2.480469 C 60.414062 1.0625 59.703125 -0.53125 58.820312 -1.949219 C 58.289062 -3.011719 57.933594 -3.542969 58.464844 -4.429688 C 57.578125 -5.492188 57.046875 -6.378906 56.871094 -7.265625 C 57.222656 -9.566406 55.808594 -11.515625 54.921875 -13.640625 C 59.882812 -15.234375 64.488281 -17.539062 68.738281 -19.488281 C 73.167969 -21.4375 76.710938 -23.917969 80.609375 -27.285156 C 84.332031 -30.472656 88.226562 -34.371094 90.53125 -39.152344 C 91.769531 -41.632812 93.011719 -44.113281 93.71875 -46.773438 C 94.960938 -52.441406 94.960938 -57.222656 93.367188 -62.363281 C 92.304688 -65.550781 91.238281 -68.03125 89.46875 -70.15625 C 86.101562 -74.585938 82.027344 -77.242188 77.777344 -79.546875 C 74.761719 -80.964844 71.574219 -81.496094 68.386719 -81.496094 C 63.78125 -81.496094 59.171875 -81.496094 54.566406 -80.789062 C 48.71875 -80.078125 43.226562 -78.308594 38.089844 -75.472656 C 33.128906 -72.816406 28.523438 -69.625 24.09375 -66.082031 C 20.195312 -62.894531 16.300781 -59.171875 12.757812 -55.097656 C 11.691406 -53.503906 10.628906 -52.085938 9.921875 -50.316406 C 9.390625 -48.898438 8.679688 -46.949219 9.035156 -45.53125 C 9.390625 -42.875 10.628906 -41.101562 11.339844 -38.800781 C 11.871094 -38.269531 13.464844 -37.734375 13.820312 -38.269531 C 15.589844 -39.683594 16.652344 -40.925781 16.121094 -42.695312 C 15.945312 -45.886719 16.832031 -48.011719 18.246094 -50.316406 C 19.84375 -52.617188 21.261719 -54.390625 22.855469 -56.515625 C 26.042969 -60.945312 30.117188 -63.78125 34.191406 -66.96875 C 34.546875 -67.144531 35.078125 -67.144531 35.253906 -67.324219 C 39.332031 -69.09375 42.875 -71.929688 46.773438 -73.167969 C 47.304688 -73.167969 47.480469 -73.523438 48.011719 -73.878906 C 49.25 -74.054688 49.960938 -74.761719 51.378906 -74.941406 C 54.390625 -76.359375 57.753906 -76.535156 61.300781 -76.710938 C 63.957031 -77.421875 66.792969 -77.597656 69.449219 -77.597656 C 74.585938 -77.597656 79.191406 -76.535156 82.914062 -72.816406 C 86.457031 -69.449219 88.582031 -65.726562 89.644531 -61.121094 C 90.886719 -53.503906 88.9375 -46.949219 85.039062 -40.925781 C 83.800781 -38.269531 81.140625 -36.140625 79.722656 -33.308594 C 79.722656 -33.128906 79.546875 -32.777344 79.371094 -32.777344 C 77.777344 -32.597656 77.242188 -30.828125 76.359375 -29.765625 C 75.472656 -28.878906 74.761719 -27.992188 73.523438 -27.285156 C 71.398438 -26.042969 69.449219 -24.273438 67.675781 -22.855469 C 66.792969 -22.5 65.550781 -21.613281 64.664062 -21.261719 C 63.957031 -20.726562 63.246094 -20.550781 62.714844 -20.195312 C 60.234375 -17.894531 57.046875 -16.476562 53.503906 -15.589844 C 52.796875 -16.300781 51.730469 -16.476562 50.667969 -16.652344 C 48.898438 -17.183594 46.949219 -16.121094 45.886719 -14.527344 C 45.53125 -13.820312 45.175781 -13.109375 45.175781 -12.222656 C 45 -11.691406 45 -10.984375 45 -10.628906 C 47.125 -4.960938 49.429688 0.886719 52.796875 6.199219 C 52.972656 6.378906 53.148438 7.265625 53.148438 7.972656 C 54.742188 10.808594 55.984375 13.640625 57.578125 16.300781 C 60.945312 21.792969 64.488281 26.574219 69.449219 30.472656 C 76.710938 35.609375 84.863281 37.914062 93.71875 35.609375 Z M 28.523438 26.929688 C 24.980469 21.96875 24.980469 16.652344 26.398438 10.984375 C 27.460938 7.265625 28.167969 3.1875 29.054688 0 C 29.410156 -2.125 29.765625 -3.71875 30.648438 -5.316406 C 31.890625 -8.859375 33.128906 -11.691406 34.546875 -14.882812 C 38.269531 -22.5 41.988281 -30.117188 45.175781 -37.558594 C 47.65625 -42.34375 49.785156 -46.59375 51.910156 -51.554688 C 52.972656 -53.148438 53.503906 -55.097656 54.390625 -56.691406 C 54.921875 -57.753906 54.921875 -59.171875 55.097656 -60.414062 C 55.097656 -62.363281 53.328125 -64.3125 51.554688 -64.3125 C 48.011719 -64.488281 44.46875 -64.132812 41.457031 -62.894531 C 40.394531 -60.058594 41.28125 -58.109375 41.988281 -56.339844 C 41.457031 -54.210938 41.457031 -53.328125 40.570312 -51.910156 C 38.800781 -46.59375 36.671875 -41.8125 34.902344 -36.851562 C 33.839844 -34.546875 33.308594 -32.777344 32.242188 -31.003906 C 31.179688 -29.410156 30.117188 -28.347656 31.003906 -25.867188 C 30.472656 -23.386719 29.585938 -21.4375 27.992188 -19.132812 C 27.992188 -17.007812 26.398438 -14.527344 25.335938 -12.402344 L 25.335938 -12.578125 C 24.804688 -9.035156 23.207031 -5.847656 21.96875 -2.835938 C 21.613281 -1.949219 21.4375 -1.59375 21.613281 -0.886719 C 21.613281 1.59375 21.082031 3.898438 19.664062 5.847656 L 17.894531 12.757812 C 18.070312 13.820312 18.246094 14.703125 18.246094 15.414062 C 18.246094 18.425781 19.488281 21.4375 20.550781 24.273438 C 23.917969 31.359375 29.054688 28.523438 28.523438 26.929688 Z M 28.523438 26.929688 "/></g></g></g></svg>